<svg width="200" height="100" xmlns="http://www.w3.org/2000/svg">
 <title>meetme</title>

 <g>
  <title>Layer 1</title>
  <path stroke="#000" stroke-width="0" id="svg_18" d="m69.64185,44.36653l0,37.50764l-52.13712,-37.50764l52.13712,0z" fill="#ce0008"/>
  <path stroke="#000" stroke-width="0" id="svg_6" d="m86.51679,43.32487l0,40.63263l-69.63706,-40.63263l69.63706,0z" fill="#ce0008"/>
  <path stroke="#000" stroke-width="0" id="svg_3" d="m86.81894,86.66466l-64.31411,0l64.31411,-43.41868l0,43.41868z" fill="#ab0009"/>
  <path stroke="#000" stroke-width="0" id="svg_4" d="m16.85329,86.62598l0,-43.37748l70.00175,43.37748l-70.00175,0z" fill="#8c0004"/>
  <text font-style="normal" font-weight="normal" stroke="#000" transform="matrix(1.46297 0 0 1.46297 1.80063 -51.4663)" xml:space="preserve" text-anchor="start" font-family="'Montserrat'" font-size="24" id="svg_10" y="92.39598" x="112.3471" stroke-width="0" fill="#ffffff">E</text>
  <text font-style="normal" font-weight="normal" transform="matrix(1.53288 0 0 1.53288 -5.53932 -58.8477)" stroke="#000" xml:space="preserve" text-anchor="start" font-family="'Montserrat'" font-size="24" id="svg_9" y="93.1315" x="60.53503" stroke-width="0" fill="#ffffff">eet</text>
  <text font-style="normal" font-weight="normal" stroke="#000" transform="matrix(1.59484 0 0 1.45345 -3.19439 -42.5087)" xml:space="preserve" text-anchor="start" font-family="'Montserrat'" font-size="24" id="svg_12" y="86.88846" x="90.16501" stroke-width="0" fill="#ffffff">M</text>
  <text stroke="#000" transform="matrix(3.10886 0 0 2.68532 -26.8402 -119.035)" font-style="normal" font-weight="normal" xml:space="preserve" text-anchor="start" font-family="'Montserrat'" font-size="24" id="svg_8" y="75.53343" x="12.59557" stroke-width="0" fill="#ffffff">m</text>
 </g>
</svg>